<svg xmlns="http://www.w3.org/2000/svg" width="269" height="40" fill="none"><path fill="#97D28B" d="M212.94 22.14c-1.093 0-1.923-.343-2.49-1.03-.567-.687-.85-1.58-.85-2.68 0-.507.063-.977.19-1.41.133-.44.327-.833.58-1.18.26-.353.607-.63 1.04-.83.433-.2.93-.3 1.49-.3.767 0 1.393.18 1.88.54.487.353.82.867 1 1.54l-.91.19c-.3-.953-.953-1.43-1.96-1.43-.753 0-1.34.257-1.76.77-.42.513-.63 1.227-.63 2.14 0 .92.213 1.63.64 2.13.427.493 1.027.74 1.8.74.647 0 1.15-.16 1.51-.48.367-.32.55-.707.55-1.16v-.75h-1.99v-.76h2.86v1.36c0 .74-.257 1.36-.77 1.86-.513.493-1.24.74-2.18.74Zm4.249-.14v-7.14h2.62c.754 0 1.344.183 1.77.55.427.36.64.863.64 1.51 0 .52-.143.953-.43 1.3-.286.34-.693.563-1.22.67l1.74 3.11h-1.06l-1.58-2.98h-1.56V22h-.92Zm.92-3.81h1.67c.474 0 .84-.107 1.1-.32.267-.213.4-.51.4-.89 0-.873-.506-1.31-1.52-1.31h-1.65v2.52Zm5.409 3.81v-7.14h4.82v.81h-3.9v2.31h3.23v.81h-3.23v2.4h3.91V22h-4.83Zm6.045 0v-7.14h4.82v.81h-3.9v2.31h3.23v.81h-3.23v2.4h3.91V22h-4.83Zm6.045 0v-7.14h1.11l3.28 4.89.54.86h.1l-.01-1.37v-4.38h.89V22h-1.06l-3.17-4.69-.69-1.06h-.09l.01 1.36V22h-.91Z"/><path fill="#173D33" d="M243.246 22v-7.14h4.82v.81h-3.9v2.31h3.23v.81h-3.23v2.4h3.91V22h-4.83Zm6.045 0v-7.14h2.62c.753 0 1.343.183 1.77.55.427.36.64.863.64 1.51 0 .52-.143.953-.43 1.3-.287.34-.693.563-1.22.67l1.74 3.11h-1.06l-1.58-2.98h-1.56V22h-.92Zm.92-3.81h1.67c.473 0 .84-.107 1.1-.32.267-.213.4-.51.4-.89 0-.873-.507-1.31-1.52-1.31h-1.65v2.52Zm8.288 3.95c-1.093 0-1.923-.343-2.49-1.03-.566-.687-.85-1.58-.85-2.68 0-.507.064-.977.19-1.41.134-.44.327-.833.58-1.18.26-.353.607-.63 1.04-.83.434-.2.93-.3 1.49-.3.767 0 1.394.18 1.88.54.487.353.82.867 1 1.54l-.91.19c-.3-.953-.953-1.43-1.96-1.43-.753 0-1.34.257-1.76.77-.42.513-.63 1.227-.63 2.14 0 .92.214 1.63.64 2.13.427.493 1.027.74 1.8.74.647 0 1.15-.16 1.51-.48.367-.32.55-.707.55-1.16v-.75h-1.99v-.76h2.86v1.36c0 .74-.256 1.36-.77 1.86-.513.493-1.24.74-2.18.74Zm5.884-.14v-2.53l-2.57-4.61h1.07l1.95 3.71 1.96-3.71h1.06l-2.55 4.61V22h-.92Zm-54.323 9v-7.14h4.68v.81h-3.76v2.48h3.12v.82h-3.12V31h-.92Zm8.496.14c-1.06 0-1.89-.357-2.49-1.07-.593-.713-.89-1.597-.89-2.65s.304-1.933.91-2.64c.614-.713 1.437-1.07 2.47-1.07 1.034 0 1.857.357 2.47 1.07.614.713.92 1.593.92 2.64 0 1.053-.3 1.937-.9 2.65-.593.713-1.423 1.07-2.49 1.07Zm0-.82c.747 0 1.34-.263 1.78-.79.447-.527.67-1.23.67-2.11 0-.873-.223-1.573-.67-2.1-.446-.54-1.04-.81-1.78-.81-.726 0-1.316.27-1.77.81-.446.527-.67 1.227-.67 2.1 0 .88.22 1.583.66 2.11.447.527 1.04.79 1.78.79Zm4.63.68v-7.14h2.62c.753 0 1.343.183 1.77.55.426.36.64.863.64 1.51 0 .52-.144.953-.43 1.3-.287.34-.694.563-1.22.67l1.74 3.11h-1.06l-1.58-2.98h-1.56V31h-.92Zm.92-3.81h1.67c.473 0 .84-.107 1.1-.32.266-.213.4-.51.4-.89 0-.873-.507-1.31-1.52-1.31h-1.65v2.52ZM231.81 31v-7.14h.92v6.32h3.75V31h-4.67Zm5.615 0v-7.14h.92V31h-.92Zm2.647 0v-7.14h4.68v.81h-3.76v2.48h3.12v.82h-3.12V31h-.92Zm5.694 0v-7.14h4.82v.81h-3.9v2.31h3.23v.81h-3.23v2.4h3.91V31h-4.83ZM44.735 31.429c-5.148 0-8.778-3.63-8.778-8.58s3.63-8.58 8.778-8.58c5.148 0 8.712 3.63 8.712 8.58v1.287H39.719c.495 2.607 2.475 4.026 5.016 4.026 1.914 0 3.3-.561 4.191-1.782h3.861c-1.254 3.069-4.224 5.049-8.052 5.049Zm-4.917-10.296h9.867c-.627-2.376-2.574-3.597-4.95-3.597-2.442 0-4.29 1.254-4.917 3.597Zm22.997 10.296c-5.148 0-8.778-3.63-8.778-8.58s3.63-8.58 8.778-8.58c4.39 0 7.623 2.64 8.448 6.435h-3.597c-.759-1.881-2.508-3.135-4.85-3.135-3.103 0-5.182 2.211-5.182 5.28 0 3.069 2.08 5.28 5.181 5.28 2.343 0 4.092-1.254 4.851-3.135h3.597c-.825 3.795-4.059 6.435-8.448 6.435Zm17.823 0c-5.148 0-8.778-3.63-8.778-8.58s3.63-8.58 8.778-8.58c5.148 0 8.778 3.63 8.778 8.58s-3.63 8.58-8.778 8.58Zm0-3.3c3.102 0 5.148-2.211 5.148-5.28 0-3.069-2.046-5.28-5.148-5.28s-5.181 2.211-5.181 5.28c0 3.069 2.079 5.28 5.181 5.28Zm16.23 3.3c-4.124 0-6.731-2.211-6.83-5.214h3.597c.066 1.221 1.155 2.046 3.234 2.046 2.178 0 3.201-.924 3.201-2.046 0-1.386-1.551-1.551-3.465-1.815-2.64-.33-6.237-.825-6.237-4.686 0-3.267 2.54-5.445 6.468-5.445 3.927 0 6.369 2.244 6.435 5.082H99.74c-.1-1.122-1.122-1.914-2.871-1.914-1.881 0-2.904.891-2.904 2.013 0 1.386 1.617 1.551 3.465 1.815 2.508.33 6.237.792 6.237 4.686 0 3.3-2.673 5.478-6.798 5.478Zm16.225 0c-5.148 0-8.778-3.63-8.778-8.58s3.63-8.58 8.778-8.58c5.148 0 8.778 3.63 8.778 8.58s-3.63 8.58-8.778 8.58Zm0-3.3c3.102 0 5.148-2.211 5.148-5.28 0-3.069-2.046-5.28-5.148-5.28s-5.181 2.211-5.181 5.28c0 3.069 2.079 5.28 5.181 5.28ZM123.681 31V7.57h3.564V31h-3.564Zm14.131.429c-4.818 0-8.052-2.772-8.052-8.25v-8.481h3.564v8.481c0 3.3 1.782 4.95 4.488 4.95 2.706 0 4.488-1.65 4.488-4.95v-8.481h3.564v8.481c0 5.445-3.234 8.25-8.052 8.25Zm16.563 0c-3.927 0-6.6-2.178-6.6-6.666V8.923h3.564v5.775h8.679v3.234h-8.679v6.831c0 2.376 1.221 3.366 3.036 3.366s3.069-.957 3.069-3.366v-.396h3.531v.396c0 4.488-2.673 6.666-6.6 6.666Zm10.215-19.041c-1.386 0-2.409-1.056-2.409-2.442 0-1.386 1.023-2.442 2.409-2.442s2.409 1.056 2.409 2.442c0 1.386-1.023 2.442-2.409 2.442ZM162.775 31V14.698h3.564V31h-3.564Zm14.165.429c-5.148 0-8.778-3.63-8.778-8.58s3.63-8.58 8.778-8.58c5.148 0 8.778 3.63 8.778 8.58s-3.63 8.58-8.778 8.58Zm0-3.3c3.102 0 5.148-2.211 5.148-5.28 0-3.069-2.046-5.28-5.148-5.28s-5.181 2.211-5.181 5.28c0 3.069 2.079 5.28 5.181 5.28ZM186.967 31v-8.481c0-5.445 3.234-8.25 8.052-8.25s8.052 2.772 8.052 8.25V31h-3.564v-8.481c0-3.3-1.782-4.95-4.488-4.95-2.706 0-4.488 1.65-4.488 4.95V31h-3.564Z"/><g clip-path="url(#a)"><path fill="#173D33" d="M21.33 26.809c-.065-.154-5.391-10.56-5.478-10.704a3.425 3.425 0 0 0-.802-1.152 3.48 3.48 0 0 0-1.201-.741 3.517 3.517 0 0 0-2.77.157c-.426.213-.803.51-1.107.872a3.38 3.38 0 0 0-.301 3.948c.065.154 5.162 10.115 5.25 10.258.064.154.14.303.228.446.184.435.456.827.8 1.153a3.48 3.48 0 0 0 1.202.74 3.52 3.52 0 0 0 2.77-.157c.426-.212.803-.51 1.108-.872a3.38 3.38 0 0 0 .301-3.948Z"/><path fill="#97D28B" d="M15.18 19.767c.326-.343.577-.749.738-1.192a3.38 3.38 0 0 0-.19-2.729 3.434 3.434 0 0 0-.894-1.082 3.52 3.52 0 0 0-4.005-.256 3.454 3.454 0 0 0-1.03.959c-.115.12-8.762 10.63-8.858 10.765a3.415 3.415 0 0 0-.739 1.192 3.38 3.38 0 0 0 .19 2.729c.219.418.524.786.894 1.082a3.518 3.518 0 0 0 4.005.256 3.452 3.452 0 0 0 1.03-.959c.115-.12 8.762-10.63 8.858-10.765ZM30.06 19.767c.326-.343.578-.75.738-1.192a3.38 3.38 0 0 0-.189-2.729 3.435 3.435 0 0 0-.895-1.082 3.519 3.519 0 0 0-4.005-.256 3.452 3.452 0 0 0-1.03.959c-.114.12-8.762 10.63-8.858 10.765a3.416 3.416 0 0 0-.738 1.192 3.38 3.38 0 0 0 .188 2.729c.22.417.525.786.896 1.082a3.52 3.52 0 0 0 4.005.256 3.452 3.452 0 0 0 1.03-.959c.114-.12 8.762-10.63 8.858-10.765Z"/></g><defs><clipPath id="a"><path fill="#fff" d="M0 14h31v18H0z"/></clipPath></defs></svg>