<svg xmlns="http://www.w3.org/2000/svg" width="31" height="18" fill="none"><g clip-path="url(#a)"><path fill="#173D33" d="M21.33 12.81c-.066-.154-5.391-10.56-5.478-10.704A3.423 3.423 0 0 0 15.05.954 3.48 3.48 0 0 0 13.85.213a3.518 3.518 0 0 0-2.77.157c-.426.212-.803.51-1.107.872A3.379 3.379 0 0 0 9.67 5.19c.064.154 5.162 10.115 5.25 10.258.064.154.14.303.227.446.184.435.457.827.802 1.153a3.517 3.517 0 0 0 3.971.583c.426-.212.803-.51 1.107-.872a3.378 3.378 0 0 0 .3-3.948Z"/><path fill="#97D28B" d="M15.18 5.768c.326-.343.577-.75.737-1.192a3.379 3.379 0 0 0-.188-2.729 3.435 3.435 0 0 0-.896-1.082 3.52 3.52 0 0 0-4.005-.256 3.453 3.453 0 0 0-1.03.959c-.114.12-8.761 10.63-8.858 10.765a3.415 3.415 0 0 0-.738 1.192 3.38 3.38 0 0 0 .189 2.729c.22.417.525.786.895 1.082a3.518 3.518 0 0 0 4.005.256 3.453 3.453 0 0 0 1.03-.959c.115-.12 8.762-10.63 8.858-10.765ZM30.06 5.768c.326-.343.577-.75.738-1.192a3.38 3.38 0 0 0-.189-2.729 3.432 3.432 0 0 0-.895-1.082 3.519 3.519 0 0 0-4.005-.256 3.453 3.453 0 0 0-1.03.959c-.115.12-8.762 10.63-8.858 10.765a3.416 3.416 0 0 0-.738 1.192 3.379 3.379 0 0 0 .188 2.729c.22.417.525.786.896 1.082.37.296.799.514 1.259.64a3.52 3.52 0 0 0 2.746-.384 3.452 3.452 0 0 0 1.03-.959c.114-.12 8.761-10.63 8.857-10.765Z"/></g><defs><clipPath id="a"><path fill="#fff" d="M0 0h31v18H0z"/></clipPath></defs></svg>