<svg xmlns="http://www.w3.org/2000/svg" width="512" height="298" fill="none"><path fill="#173D33" d="M352.281 212.059c-1.071-2.541-89.029-174.834-90.471-177.208a56.682 56.682 0 0 0-13.234-19.08 57.469 57.469 0 0 0-19.844-12.267 57.967 57.967 0 0 0-45.748 2.604 57.242 57.242 0 0 0-18.287 14.438 56.478 56.478 0 0 0-10.931 20.456 56.053 56.053 0 0 0-1.754 23.07 56.258 56.258 0 0 0 7.714 21.841c1.071 2.54 85.26 167.451 86.701 169.825a56.378 56.378 0 0 0 3.77 7.384 56.676 56.676 0 0 0 13.235 19.081 57.459 57.459 0 0 0 19.843 12.266 57.957 57.957 0 0 0 23.149 3.409 57.873 57.873 0 0 0 22.599-6.014 57.253 57.253 0 0 0 18.287-14.437 56.497 56.497 0 0 0 10.931-20.457 56.068 56.068 0 0 0 1.754-23.069 56.254 56.254 0 0 0-7.714-21.842Z"/><path fill="#97D28B" d="M250.705 95.475a56.571 56.571 0 0 0 12.192-19.736 56.077 56.077 0 0 0 3.203-22.907 56.163 56.163 0 0 0-6.318-22.265 56.81 56.81 0 0 0-14.788-17.918A57.595 57.595 0 0 0 224.197 2.06 57.99 57.99 0 0 0 200.852.563a57.768 57.768 0 0 0-22.007 7.843 57.072 57.072 0 0 0-17.007 15.88c-1.892 1.991-144.713 175.98-146.3 178.227a56.567 56.567 0 0 0-12.192 19.736 56.08 56.08 0 0 0 3.115 45.172 56.823 56.823 0 0 0 14.788 17.918 57.592 57.592 0 0 0 20.798 10.589 57.996 57.996 0 0 0 23.344 1.497 57.767 57.767 0 0 0 22.008-7.844 57.06 57.06 0 0 0 17.006-15.879c1.892-1.992 144.713-175.98 146.3-178.227ZM496.469 95.472a56.572 56.572 0 0 0 12.192-19.735 56.078 56.078 0 0 0-3.115-45.173 56.81 56.81 0 0 0-14.788-17.918 57.586 57.586 0 0 0-20.797-10.589A57.99 57.99 0 0 0 446.616.56a57.768 57.768 0 0 0-22.007 7.844 57.071 57.071 0 0 0-17.007 15.879c-1.891 1.992-144.713 175.98-146.3 178.227a56.575 56.575 0 0 0-12.192 19.736 56.079 56.079 0 0 0-3.203 22.907 56.175 56.175 0 0 0 6.318 22.265 56.826 56.826 0 0 0 14.788 17.918 57.58 57.58 0 0 0 20.798 10.589 57.98 57.98 0 0 0 23.345 1.497 57.784 57.784 0 0 0 22.007-7.843 57.072 57.072 0 0 0 17.006-15.879c1.892-1.993 144.713-175.98 146.3-178.227Z"/></svg>